<svg width="25" height="25" viewBox="0 0 25 25" fill="none" xmlns="http://www.w3.org/2000/svg">
<path d="M19.6599 4.8219H5.65991C4.54991 4.8219 3.65991 5.7219 3.65991 6.8219V18.8219C3.65991 19.9219 4.54991 20.8219 5.65991 20.8219H19.6599C20.7599 20.8219 21.6599 19.9219 21.6599 18.8219V6.8219C21.6599 5.7219 20.7599 4.8219 19.6599 4.8219ZM19.6599 18.8219H5.65991V6.8219H19.6599V18.8219ZM7.65991 15.8219H10.6599C11.2099 15.8219 11.6599 15.3719 11.6599 14.8219V13.8219H10.1599V14.3219H8.15991V11.3219H10.1599V11.8219H11.6599V10.8219C11.6599 10.2719 11.2099 9.8219 10.6599 9.8219H7.65991C7.10991 9.8219 6.65991 10.2719 6.65991 10.8219V14.8219C6.65991 15.3719 7.10991 15.8219 7.65991 15.8219ZM14.6599 15.8219H17.6599C18.2099 15.8219 18.6599 15.3719 18.6599 14.8219V13.8219H17.1599V14.3219H15.1599V11.3219H17.1599V11.8219H18.6599V10.8219C18.6599 10.2719 18.2099 9.8219 17.6599 9.8219H14.6599C14.1099 9.8219 13.6599 10.2719 13.6599 10.8219V14.8219C13.6599 15.3719 14.1099 15.8219 14.6599 15.8219Z" fill="white"/>
</svg>
