<svg width="25" height="25" viewBox="0 0 25 25" fill="none" xmlns="http://www.w3.org/2000/svg">
<path d="M17.1599 3.8219C15.4199 3.8219 13.7499 4.6319 12.6599 5.9119C11.5699 4.6319 9.89991 3.8219 8.15991 3.8219C5.07991 3.8219 2.65991 6.2419 2.65991 9.3219C2.65991 13.1019 6.05991 16.1819 11.2099 20.8619L12.6599 22.1719L14.1099 20.8519C19.2599 16.1819 22.6599 13.1019 22.6599 9.3219C22.6599 6.2419 20.2399 3.8219 17.1599 3.8219ZM12.7599 19.3719L12.6599 19.4719L12.5599 19.3719C7.79991 15.0619 4.65991 12.2119 4.65991 9.3219C4.65991 7.3219 6.15991 5.8219 8.15991 5.8219C9.69991 5.8219 11.1999 6.8119 11.7299 8.1819H13.5999C14.1199 6.8119 15.6199 5.8219 17.1599 5.8219C19.1599 5.8219 20.6599 7.3219 20.6599 9.3219C20.6599 12.2119 17.5199 15.0619 12.7599 19.3719Z" fill="white"/>
</svg>
