<svg width="25" height="25" viewBox="0 0 25 25" fill="none" xmlns="http://www.w3.org/2000/svg">
<path d="M11.6599 7.8219H13.6599V9.8219H11.6599V7.8219ZM11.6599 11.8219H13.6599V17.8219H11.6599V11.8219ZM12.6599 2.8219C7.13991 2.8219 2.65991 7.3019 2.65991 12.8219C2.65991 18.3419 7.13991 22.8219 12.6599 22.8219C18.1799 22.8219 22.6599 18.3419 22.6599 12.8219C22.6599 7.3019 18.1799 2.8219 12.6599 2.8219ZM12.6599 20.8219C8.24991 20.8219 4.65991 17.2319 4.65991 12.8219C4.65991 8.4119 8.24991 4.8219 12.6599 4.8219C17.0699 4.8219 20.6599 8.4119 20.6599 12.8219C20.6599 17.2319 17.0699 20.8219 12.6599 20.8219Z" fill="white"/>
</svg>
