<svg width="16" height="17" viewBox="0 0 16 17" fill="none" xmlns="http://www.w3.org/2000/svg">
<g clip-path="url(#clip0_5232_16433)">
<path d="M10 1.06376H6V2.3971H10V1.06376ZM7.33333 9.73043H8.66667V5.73043H7.33333V9.73043ZM12.6867 5.32376L13.6333 4.3771C13.3467 4.0371 13.0333 3.7171 12.6933 3.4371L11.7467 4.38376C10.7133 3.5571 9.41333 3.06376 8 3.06376C4.68667 3.06376 2 5.75043 2 9.06376C2 12.3771 4.68 15.0638 8 15.0638C11.32 15.0638 14 12.3771 14 9.06376C14 7.65043 13.5067 6.35043 12.6867 5.32376ZM8 13.7304C5.42 13.7304 3.33333 11.6438 3.33333 9.06376C3.33333 6.48376 5.42 4.3971 8 4.3971C10.58 4.3971 12.6667 6.48376 12.6667 9.06376C12.6667 11.6438 10.58 13.7304 8 13.7304Z" fill="black"/>
</g>
<defs>
<clipPath id="clip0_5232_16433">
<rect width="16" height="16" fill="white" transform="translate(0 0.397095)"/>
</clipPath>
</defs>
</svg>
