<svg width="16" height="17" viewBox="0 0 16 17" fill="none" xmlns="http://www.w3.org/2000/svg">
<g clip-path="url(#clip0_5232_16428)">
<path d="M15.0733 13.0571L9.01997 7.00376C9.63997 5.44376 9.31997 3.60376 8.05997 2.33709C6.52664 0.80376 4.13997 0.66376 2.43997 1.90376L4.99997 4.47043L4.05331 5.41043L1.49997 2.85709C0.259974 4.55043 0.399974 6.94376 1.93331 8.47043C3.17331 9.71043 4.97997 10.0371 6.52664 9.45709L12.6 15.5304C12.86 15.7904 13.28 15.7904 13.54 15.5304L15.0733 13.9971C15.34 13.7438 15.34 13.3238 15.0733 13.0571ZM13.0733 14.1238L6.76664 7.81709C6.35997 8.11709 5.90664 8.29709 5.43331 8.36376C4.52664 8.49709 3.57331 8.22376 2.87997 7.53043C2.24664 6.90376 1.95331 6.06376 1.99997 5.23709L4.05997 7.29709L6.88664 4.47043L4.82664 2.41043C5.65331 2.36376 6.48664 2.65709 7.11998 3.28376C7.83997 4.00376 8.11331 4.99709 7.94664 5.92376C7.86664 6.39709 7.66664 6.83709 7.35997 7.23043L13.66 13.5304L13.0733 14.1238Z" fill="black"/>
</g>
<defs>
<clipPath id="clip0_5232_16428">
<rect width="16" height="16" fill="white" transform="translate(0 0.397095)"/>
</clipPath>
</defs>
</svg>
